<svg xmlns="http://www.w3.org/2000/svg" aria-hidden="true" style="position:absolute;width:0;height:0;overflow:hidden">
<defs>
<symbol id="icon-Star-2" viewBox="0 0 33 32">
   <path stroke-width="1.959" d="m19.283 9.22 3.844-3.476-2.047 6.463 6.689-1.107-5.217 4.33 6.225 2.685-6.729.823 3.785 5.624-6.106-2.946.034 1.597.11 5.181-3.544-5.78-3.544 5.78.11-5.181.034-1.597-6.106 2.946 3.785-5.624-6.729-.823 6.225-2.685-5.217-4.33 6.689 1.107-2.047-6.463 5.029 4.547 1.772-6.544 1.772 6.544 1.185-1.072z"/></symbol>
<symbol id="icon-youtube" viewBox="0 0 32 32">
   <path d="M28.724 8.664c.609 2.376.609 7.336.609 7.336s0 4.96-.609 7.336c-.339 1.313-1.329 2.347-2.584 2.696-2.279.635-10.14.635-10.14.635s-7.857 0-10.14-.635c-1.26-.355-2.249-1.387-2.584-2.696C2.667 20.96 2.667 16 2.667 16s0-4.96.609-7.336c.339-1.313 1.329-2.347 2.584-2.696C8.143 5.333 16 5.333 16 5.333s7.861 0 10.14.635c1.26.355 2.249 1.387 2.584 2.696zM13.333 20.667l8-4.667-8-4.667v9.333z"/></symbol>
<symbol id="icon-instagram" viewBox="0 0 32 32">
   <path d="M16 2.667c3.623 0 4.075.013 5.496.08 1.42.067 2.387.289 3.237.62a6.51 6.51 0 0 1 2.363 1.537 6.538 6.538 0 0 1 1.537 2.363c.329.849.553 1.817.62 3.237.063 1.421.08 1.873.08 5.496s-.013 4.075-.08 5.496c-.067 1.42-.291 2.387-.62 3.237a6.53 6.53 0 0 1-1.537 2.363 6.55 6.55 0 0 1-2.363 1.537c-.849.329-1.817.553-3.237.62-1.421.063-1.873.08-5.496.08s-4.075-.013-5.496-.08c-1.42-.067-2.387-.291-3.237-.62a6.53 6.53 0 0 1-2.363-1.537 6.53 6.53 0 0 1-1.537-2.363c-.331-.849-.553-1.817-.62-3.237-.063-1.421-.08-1.873-.08-5.496s.013-4.075.08-5.496c.067-1.421.289-2.387.62-3.237a6.516 6.516 0 0 1 1.537-2.363 6.53 6.53 0 0 1 2.363-1.537c.851-.331 1.816-.553 3.237-.62 1.421-.063 1.873-.08 5.496-.08zm0 6.666a6.67 6.67 0 0 0-4.714 11.381 6.67 6.67 0 0 0 9.428 0A6.668 6.668 0 0 0 16 9.333zM24.667 9a1.667 1.667 0 1 0-3.334 0 1.667 1.667 0 0 0 3.334 0zM16 12a4.003 4.003 0 0 1 4 4 4.003 4.003 0 0 1-4 4 4.003 4.003 0 0 1-4-4 4.003 4.003 0 0 1 4-4z"/></symbol>
<symbol id="icon-facebook" viewBox="0 0 32 32">
   <path d="M20.536 28v-9.288h3.111l.465-3.611h-3.576v-2.304c0-1.045.291-1.759 1.789-1.759h1.912V7.809a25.69 25.69 0 0 0-2.787-.143c-2.756 0-4.643 1.683-4.643 4.773V15.1H13.69v3.611h3.117v9.288H5.332a1.334 1.334 0 0 1-1.334-1.334V5.332a1.335 1.335 0 0 1 1.334-1.334h21.333a1.335 1.335 0 0 1 1.334 1.334v21.333a1.334 1.334 0 0 1-1.334 1.334h-6.131z"/></symbol>
<symbol id="icon-close" viewBox="0 0 32 32">
   <path d="M7.2 7.2a1.132 1.132 0 0 1 1.6 0l16 16a1.132 1.132 0 0 1-1.6 1.6l-16-16a1.132 1.132 0 0 1 0-1.6z"/>
   <path d="M24.8 7.2a1.132 1.132 0 0 1 0 1.6l-16 16a1.132 1.132 0 0 1-1.6-1.6l16-16a1.132 1.132 0 0 1 1.6 0z"/></symbol>
<symbol id="icon-Star-1" viewBox="0 0 33 32">
   <path d="m16.457 0 2.254 8.324 6.396-5.784-2.604 8.221 8.508-1.408-6.636 5.508 7.919 3.416-8.56 1.046 4.815 7.154-7.767-3.748.183 8.622-4.508-7.352-4.508 7.352.183-8.622-7.767 3.748 4.815-7.154-8.56-1.046 7.919-3.416-6.636-5.508 8.508 1.408L7.807 2.54l6.396 5.784L16.457 0z"/></symbol>
<symbol id="icon-Frame-217" viewBox="0 0 32 32">
   <path stroke-linecap="round" stroke-linejoin="round" stroke-width="2.667" d="M12.333 28.222a1.222 1.222 0 1 0 0-2.444 1.222 1.222 0 0 0 0 2.444zM25.778 28.222a1.222 1.222 0 1 0 0-2.444 1.222 1.222 0 0 0 0 2.444zM2.556 2.555h4.889l3.276 16.366a2.445 2.445 0 0 0 2.445 1.968h11.88a2.443 2.443 0 0 0 2.445-1.968l1.956-10.254H8.669"/></symbol>
<symbol id="icon-menu" viewBox="0 0 32 32">
   <path stroke-linecap="round" stroke-linejoin="round" stroke-width="2.286" d="M4 16h24M4 8h24M4 24h24"/></symbol>
</defs>
</svg>